<svg xmlns="http://www.w3.org/2000/svg" width="46" height="46" viewBox="0 0 46 46">
  <g fill="none" fill-rule="evenodd">
    <path fill="#FFF" d="M0 0h46v46H0z"/>
    <g transform="translate(11 11)">
      <path d="M23.64 12.2045c0-.8109-.0727-1.5936-.2082-2.3478H12v4.4446h6.5482c-.2827 1.5227-1.1346 2.8136-2.4191 3.6827v3.0572h3.9082c2.2873-2.1082 3.6037-5.2155 3.6037-8.8367z" fill="#4285F4"/>
      <path d="M12 24c3.24 0 5.9636-1.0736 7.951-2.9155l-3.9082-3.0572c-1.0845.7273-2.4682 1.1582-4.0428 1.1582-3.1082 0-5.7418-2.1009-6.6873-4.9246H1.2873v3.0891C3.2673 21.6127 7.3455 24 12 24z" fill="#34A853"/>
      <path d="M5.3127 14.2609c-.24-.7273-.3773-1.5045-.3773-2.2609s.1373-1.5336.3773-2.2609V6.6509H1.2873C.4664 8.2255 0 10.0518 0 12c0 1.9482.4664 3.7745 1.2873 5.3491l4.0254-3.0882z" fill="#FBBC05"/>
      <path d="M12 4.7727c1.7655 0 3.3436.6073 4.5918 1.7973l3.4346-3.4346C17.9636 1.6845 15.24.5 12 .5 7.3455.5 3.2673 2.8873 1.2873 6.6509l4.0254 3.0882C6.2582 6.8736 8.8918 4.7727 12 4.7727z" fill="#EA4335"/>
    </g>
  </g>
</svg> 